<?xml version="1.0" encoding="utf-8"?>
<!-- Generator: Adobe Illustrator 23.1.0, SVG Export Plug-In . SVG Version: 6.00 Build 0)  -->
<svg version="1.1" id="Layer_1" xmlns="http://www.w3.org/2000/svg" xmlns:xlink="http://www.w3.org/1999/xlink" x="0px" y="0px"
	 viewBox="0 0 300 300" style="enable-background:new 0 0 300 300;" xml:space="preserve">
<style type="text/css">
	.st0{fill:#92C0DB;}
	.st1{fill:#7CB3CE;}
	.st2{fill:none;stroke:#3976BC;stroke-width:3.9565;stroke-linecap:round;stroke-linejoin:round;stroke-miterlimit:10;}
	.st3{fill:#639ED5;}
	.st4{fill:#4694D0;}
	.st5{fill:#DFF3FA;}
	.st6{fill:#B3DBF4;}
	.st7{fill:none;stroke:#3976BC;stroke-width:1.9782;stroke-linecap:round;stroke-linejoin:round;stroke-miterlimit:10;}
</style>
<g>
	<path class="st0" d="M135.41,52.63l12.08,12.08c2.83,2.83,6.94,3.96,10.82,2.99l30.19-7.61c8.56-2.16,11.51-12.83,5.26-19.07
		L170.4,17.65c-4.44-4.44-11.64-4.44-16.08,0l-18.9,18.9C130.97,40.99,130.97,48.19,135.41,52.63z"/>
	<path class="st1" d="M154.31,17.65L141.4,30.56c4.44-4.44,11.64-4.44,16.08,0l23.37,23.37c2.09,2.09,3.13,4.67,3.29,7.26l4.35-1.1
		c8.56-2.16,11.51-12.83,5.26-19.07L170.4,17.65C165.95,13.21,158.75,13.21,154.31,17.65z"/>
	<path class="st0" d="M18.8,169.25l23.09,23.09c6.21,6.21,16.81,3.34,19.04-5.15l7.88-29.93c1.03-3.91-0.1-8.08-2.96-10.94
		l-12.07-12.07c-4.44-4.44-11.64-4.44-16.08,0l-18.9,18.9C14.36,157.6,14.36,164.8,18.8,169.25z"/>
	<path class="st2" d="M135.41,52.63l12.08,12.08c2.83,2.83,6.94,3.96,10.82,2.99l30.19-7.61c8.56-2.16,11.51-12.83,5.26-19.07
		L170.4,17.65c-4.44-4.44-11.64-4.44-16.08,0l-18.9,18.9C130.97,40.99,130.97,48.19,135.41,52.63z"/>
	<path class="st2" d="M18.8,169.25l23.09,23.09c6.21,6.21,16.81,3.34,19.04-5.15l7.88-29.93c1.03-3.91-0.1-8.08-2.96-10.94
		l-12.07-12.07c-4.44-4.44-11.64-4.44-16.08,0l-18.9,18.9C14.36,157.6,14.36,164.8,18.8,169.25z"/>
	<path class="st3" d="M93.47,69.78l67.9,62.87l126.9-78.77l-18.17-18.17c-7.47-7.47-18.4-10.33-28.57-7.48L93.47,69.78z"/>
	<path class="st4" d="M248.94,60.81l10.79,10.79l28.54-17.71l-18.17-18.17c-7.47-7.47-18.4-10.33-28.57-7.48L93.47,69.78
		l13.79,12.77l108.46-30.43C227.55,48.8,240.25,52.12,248.94,60.81z"/>
	<path class="st3" d="M225.48,229.5l62.58-39.77l-12.32-12.32c-3.08-3.08-7.17-4.92-11.51-5.2l-73.47-4.59L225.48,229.5z"/>
	<path class="st4" d="M190.76,167.63l9.63,17.16l39.42,2.46c10.03,0.63,19.49,4.9,26.6,12.01l2.59,2.59l19.06-12.11l-12.32-12.32
		c-3.08-3.08-7.17-4.92-11.51-5.2L190.76,167.63z"/>
	<path class="st3" d="M176.62,276.53l12.32,12.32l40.2-62.32l-62.31-34.98l4.59,73.47C171.69,269.36,173.54,273.46,176.62,276.53z"
		/>
	<path class="st3" d="M36.93,269l18.14,18.15l78.73-126.94l-62.87-67.9L29.45,240.45C26.6,250.62,29.46,261.54,36.93,269z"/>
	<path class="st2" d="M93.47,69.78l67.9,62.87l126.9-78.77l-18.17-18.17c-7.47-7.47-18.4-10.33-28.57-7.48L93.47,69.78z"/>
	<path class="st2" d="M225.48,229.5l62.58-39.77l-12.32-12.32c-3.08-3.08-7.17-4.92-11.51-5.2l-73.47-4.59L225.48,229.5z"/>
	<path class="st2" d="M176.62,276.53l12.32,12.32l40.2-62.32l-62.31-34.98l4.59,73.47C171.69,269.36,173.54,273.46,176.62,276.53z"
		/>
	<path class="st2" d="M36.93,269l18.14,18.15l78.73-126.94l-62.87-67.9L29.45,240.45C26.6,250.62,29.46,261.54,36.93,269z"/>
	<path class="st5" d="M40.15,12.7c-7.17-3.08-15.38-1.5-20.89,4.02l-1.64,1.64l-0.31,0.3c-5.52,5.52-7.1,13.73-4.02,20.9l0.81,1.9
		c9.03,21.05,20.38,38.5,33.74,51.87l102.89,102.89c13.72,13.72,29.94,24.28,52.6,34.25l18.6,7.28l7.54-7.55l0,0l8.88-8.88
		l-7.15-18.28l-0.13-0.31c-7.95-18.06-17.53-37.01-33.69-53.16L94.36,46.57C78.01,30.21,58.64,20.62,40.15,12.7z"/>
	<path class="st6" d="M40.15,12.7c-7.17-3.08-15.38-1.5-20.89,4.02l-1.64,1.64l-0.31,0.3c-2.3,2.3-3.91,5.08-4.79,8.05
		c4.14-1.23,8.67-1.03,12.85,0.76c18.49,7.92,37.86,17.51,54.21,33.87L182.6,164.35c16.16,16.16,25.74,35.1,33.69,53.16l0.13,0.31
		l7.15,18.28l-1.65,1.65l0,0l7.54-7.55l8.88-8.88l-7.15-18.28l-0.13-0.31c-7.95-18.06-17.53-37.01-33.69-53.16L94.36,46.57
		C78.01,30.21,58.64,20.62,40.15,12.7z"/>
	<line class="st2" x1="98.03" y1="178.51" x2="118.47" y2="198.95"/>
	<line class="st2" x1="73.84" y1="224.29" x2="94.28" y2="244.72"/>
	<line class="st2" x1="86.07" y1="201.53" x2="106.5" y2="221.97"/>
	<line class="st2" x1="187.07" y1="185.92" x2="239.47" y2="238.32"/>
	<line class="st2" x1="179.66" y1="96.88" x2="200.1" y2="117.32"/>
	<line class="st2" x1="225.44" y1="72.69" x2="245.87" y2="93.13"/>
	<line class="st2" x1="202.68" y1="84.92" x2="223.12" y2="105.35"/>
	<polygon class="st3" points="75.6,47.04 57.95,56.8 48.83,73.82 36.32,61.31 45.76,43.97 63.09,34.54 	"/>
	<polygon class="st7" points="75.6,47.04 57.95,56.8 48.83,73.82 36.32,61.31 45.76,43.97 63.09,34.54 	"/>
	<g>
		<g>
			<path class="st6" d="M65.64,101.99l-4.57,4.57l-11.9-11.9l4.57-4.57c1.88-1.88,4.94-1.88,6.82,0l5.08,5.08
				C67.52,97.05,67.52,100.11,65.64,101.99z"/>
		</g>
		<path class="st6" d="M85.55,121.9l-4.57,4.57l-11.9-11.9l4.57-4.57c1.88-1.88,4.94-1.88,6.82,0l5.08,5.08
			C87.43,116.96,87.43,120.02,85.55,121.9z"/>
		<path class="st6" d="M105.46,141.81l-4.57,4.57l-11.9-11.9l4.57-4.57c1.88-1.88,4.94-1.88,6.82,0l5.08,5.08
			C107.34,136.87,107.34,139.92,105.46,141.81z"/>
		<path class="st6" d="M125.37,161.72l-4.57,4.57l-11.9-11.9l4.57-4.57c1.88-1.88,4.94-1.88,6.82,0l5.08,5.08
			C127.25,156.78,127.25,159.83,125.37,161.72z"/>
		<path class="st6" d="M145.28,181.63l-4.57,4.57l-11.9-11.9l4.57-4.57c1.88-1.88,4.94-1.88,6.82,0l5.08,5.08
			C147.16,176.69,147.16,179.74,145.28,181.63z"/>
		<path class="st6" d="M165.19,201.53l-4.57,4.57l-11.9-11.9l4.57-4.57c1.88-1.88,4.94-1.88,6.82,0l5.08,5.08
			C167.07,196.6,167.07,199.65,165.19,201.53z"/>
	</g>
	<g>
		<g>
			<path class="st5" d="M190.71,152.22l4.57-4.57l11.9,11.9l-4.57,4.57c-1.88,1.88-4.94,1.88-6.82,0l-5.08-5.08
				C188.82,157.16,188.82,154.11,190.71,152.22z"/>
		</g>
		<path class="st5" d="M170.8,132.31l4.57-4.57l11.9,11.9l-4.57,4.57c-1.88,1.88-4.94,1.88-6.82,0l-5.08-5.08
			C168.91,137.25,168.91,134.2,170.8,132.31z"/>
		<path class="st5" d="M150.89,112.4l4.57-4.57l11.9,11.9l-4.57,4.57c-1.88,1.88-4.94,1.88-6.82,0l-5.08-5.08
			C149,117.34,149,114.29,150.89,112.4z"/>
		<path class="st5" d="M130.98,92.5l4.57-4.57l11.9,11.9l-4.57,4.57c-1.88,1.88-4.94,1.88-6.82,0l-5.08-5.08
			C129.09,97.43,129.09,94.38,130.98,92.5z"/>
		<path class="st5" d="M111.07,72.59l4.57-4.57l11.9,11.9l-4.57,4.57c-1.88,1.88-4.94,1.88-6.82,0l-5.08-5.08
			C109.19,77.52,109.19,74.47,111.07,72.59z"/>
		<path class="st5" d="M91.16,52.68l4.57-4.57l11.9,11.9l-4.57,4.57c-1.88,1.88-4.94,1.88-6.82,0l-5.08-5.08
			C89.28,57.61,89.28,54.56,91.16,52.68z"/>
	</g>
	<path class="st2" d="M40.15,12.7c-7.17-3.08-15.38-1.5-20.89,4.02l-1.64,1.64l-0.31,0.3c-5.52,5.52-7.1,13.73-4.02,20.9l0.81,1.9
		c9.03,21.05,20.38,38.5,33.74,51.87l102.89,102.89c13.72,13.72,29.94,24.28,52.6,34.25l18.6,7.28l7.54-7.55l0,0l8.88-8.88
		l-7.15-18.28l-0.13-0.31c-7.95-18.06-17.53-37.01-33.69-53.16L94.36,46.57C78.01,30.21,58.64,20.62,40.15,12.7z"/>
	<g>
		<g>
			<g>
				<g>
					<circle class="st4" cx="70.52" cy="134.1" r="3.27"/>
					<circle class="st4" cx="66.95" cy="146.92" r="3.27"/>
					<circle class="st4" cx="63.38" cy="159.75" r="3.27"/>
				</g>
			</g>
			<g>
				<g>
					<circle class="st3" cx="135.75" cy="68.87" r="3.27"/>
					<circle class="st3" cx="148.58" cy="65.3" r="3.27"/>
					<circle class="st3" cx="161.4" cy="61.72" r="3.27"/>
				</g>
			</g>
		</g>
	</g>
	<line class="st7" x1="18.8" y1="169.25" x2="53.78" y2="134.26"/>
	<line class="st7" x1="135.41" y1="52.63" x2="170.4" y2="17.65"/>
</g>
</svg>
