<?xml version="1.0" encoding="utf-8"?>
<!-- Generator: Adobe Illustrator 23.1.0, SVG Export Plug-In . SVG Version: 6.00 Build 0)  -->
<svg version="1.1" id="Layer_1" xmlns="http://www.w3.org/2000/svg" xmlns:xlink="http://www.w3.org/1999/xlink" x="0px" y="0px"
	 viewBox="0 0 700 500" style="enable-background:new 0 0 700 500;" xml:space="preserve">
<style type="text/css">
	.st0{fill:#3E6DB5;}
	.st1{fill:#3F6EB5;}
	.st2{fill:#3D6DB5;}
	.st3{fill:#3E6EB5;}
</style>
<g>
	<path class="st0" d="M527.44,329.12c-15.23,7.76-30.07,16.38-46.09,22.45c-7.11,2.7-14.32,5.39-21.71,7.07
		c-19.48,4.42-36.42-11.9-31.21-31.15c7.96-29.47,27.63-48.65,56.77-57.73c7.37-2.3,15.32-3.19,20.58,4.83
		c5.14,7.84,4.43,18.12-2.43,25.55c-13.72,14.85-31.29,22.51-51,25.49c-7.44,1.12-12.07,6.38-10.71,13.97
		c1.46,8.15,7.85,5.94,12.92,5.25c8.92-1.22,17-5.16,25.08-8.88c22.61-10.4,43.29-24.12,64.23-37.39c3.09-1.96,4.97-4.82,6.95-7.7
		c24.34-35.5,52.08-68.22,82.24-98.86c3.91-3.97,7.12-15,15.94-7.65c8.93,7.45-0.25,13.08-4.33,18.14
		c-26.74,33.15-54.79,65.27-79.94,99.69c-8.62,11.8-17.14,23.72-22.98,37.22c-1.14,2.63-3.79,6.07-0.7,8.72
		c2.86,2.45,5.96,0.05,8.77-1.36c10.6-5.31,19.83-12.62,29.12-19.83c12.81-9.96,25.61-19.92,38.24-30.1
		c4.54-3.66,8.38-5.38,12.95-0.1c4.72,5.45,1.8,9.39-2.23,12.97c-5.93,5.28-11.97,10.48-18.27,15.31
		c-16.68,12.79-34.15,24.35-52.93,33.91c-7.97,4.05-15.84,5.34-23.3-0.39c-7.2-5.53-7.83-13.28-5.99-21.59
		C527.92,334.61,529.28,332.18,527.44,329.12z M453.59,310.76c16.86-2.2,37.36-16.01,41.08-27.11
		C480.35,284.21,465.9,293.58,453.59,310.76z"/>
	<path class="st1" d="M174.77,195.76c-32.44,4.44-63.05,10.15-93.67,15.89c-3.62,0.68-8.4,3-9.31-2.53c-0.76-4.68,4.53-4.5,7.63-5.3
		c33.29-8.59,67.04-15.03,100.94-20.63c4.11-0.68,8.03-1.04,11.25-4.29c4.08-4.11,7.29,1.93,12,1.21
		c78.15-12,157.03-16.1,235.88-20.16c20.98-1.08,42.01-1.27,63.01-1.88c6.85-0.2,13.81,0.65,13.68,9.26
		c-0.12,8.09-6.77,8.34-13.31,8.4c-100.96,0.95-201.8,4.25-302.16,16.37c-3.62,0.44-6.33,1.59-9.06,4.32
		c-34.15,34.18-61,73.99-88.13,113.56c-16.35,23.84-31.7,48.35-44.08,74.57c-1.75,3.7-3.78,7.21-8.53,5.19
		c-5.34-2.27-3.8-6.63-2.11-10.53c5.69-13.16,13.19-25.35,20.85-37.42c26.92-42.41,55.48-83.69,86.03-123.59
		C161.27,210.9,167.57,204.18,174.77,195.76z"/>
	<path class="st2" d="M268.5,344.67c24.6-13.38,47.97-27.09,67.85-45.92c5.08-4.81,3.77-12.57,6.54-18.55
		c2.38-5.13,2.59-14.2,10.22-12.67c9.05,1.81,7.22,10.34,5.94,17.41c-2.77,15.23-5.4,30.48-8.12,45.88
		c4.34,0.31,5.62-2.71,7.57-4.51c18.19-16.84,35.66-34.45,55.47-49.49c6.19-4.7,12.04-5.91,17.62,0.33
		c2.92,3.27,3.34,7.05-1.29,9.48c-22.06,11.57-38.34,30.12-56.46,46.45c-7.79,7.02-15.32,14.34-22.7,21.79
		c-3.9,3.93-8.08,4.87-12.93,2.68c-5.18-2.33-7.72-6.25-6.91-12.18c0.85-6.26,1.38-12.56,2.23-20.57
		c-6.57,4.29-11.92,7.88-17.36,11.31c-13.18,8.31-26.61,16.18-41.17,21.87c-15.21,5.94-22.72,0.65-22.21-15.45
		c0.04-1.2-0.12-2.4-0.21-3.98c-8.08,5.41-15.64,10.63-23.35,15.59c-4.5,2.89-9.36,4.23-14.23,0.67c-5.25-3.83-8.21-8.86-7.1-15.54
		c0.51-3.11,1.19-6.27,2.34-9.2c9.45-24.16,25.28-43.14,47.49-56.55c10.15-6.13,20.97-8.05,31.04,0.39c3.62,3.04,6.38,1.57,9.41-0.2
		c4.46-2.61,7.87-1.13,10.82,2.48c3.23,3.96,2.21,7.21-1.13,10.8c-13.01,14-24.57,29.13-34.57,45.41
		C271.2,335.79,268.26,338.91,268.5,344.67z M226.45,336.36c19.81-13.06,38.33-27.46,52.81-46.38c1.18-1.55,3.5-3.75,1.2-5.71
		c-2.02-1.72-5.02-1.14-7.27,0C250.83,295.54,236.64,314.13,226.45,336.36z"/>
	<path class="st3" d="M554.12,216.16c5.51-12.99,10.67-25.86,16.43-38.45c2.64-5.77,1.82-8.07-4.77-8.04
		c-5.71,0.03-11.5-0.06-17.13-0.91c-7.37-1.12-13,0.37-16.7,7.35c-1.51,2.86-4.18,5.78-7.64,4.09c-4.49-2.19-0.67-5.88,0.27-8.06
		c2.81-6.53,1.28-12.35-1.13-18.34c-0.78-1.92-2.8-4.24-0.27-5.93c1.89-1.26,4.89-0.93,6.07,1.06c10.46,17.6,26.05,6.54,39.44,6.97
		c6.39,0.21,2.64-4.18,1.56-6.52c-5.82-12.63-11.83-25.18-17.77-37.73c5.68-3.81,9.37-1.64,12.61,3.08
		c3.44,5.02,7.2,9.34,14.28,9.64c3.26,0.14,7.29,1.58,2.3,6.57c-4.18,4.18,1.33,4.14,3.63,5.39c3.01,1.64,11.21-0.92,5.31,8.18
		c-1.85,2.86,3.93,9.83,10.92,9.89c9.2,0.08,18.49-0.35,27.3,3.19c2.66,1.07,6.2,2.03,6.22,5.09c0.01,3.16-3.63,3.88-6.28,4.96
		c-8.49,3.49-17.42,2.98-26.31,3.19c-8.25,0.19-11.07,4.46-9.07,12.73c1.26,5.2-3.52,3.92-5.9,5.24c-2.9,1.62-10.34,1.03-3.06,7.4
		c3.12,2.73-0.78,4.91-2.88,5.05c-7.74,0.53-11.78,5.65-15.31,11.41C563.38,217.3,559.51,217.72,554.12,216.16z"/>
	<path class="st2" d="M195.56,296.73c-25.77,13.78-48.31,29.39-65,52.32c-3.35,4.6-7.1,9.64-14.06,5.16
		c-6.89-4.44-4.01-9.7-1.15-14.84c10.51-18.93,22.79-36.66,36.79-53.16c7.36-8.68,11.46-8.2,15.02,2.49
		c2.12,6.38,4.29,3.64,7.14,1.56c9.22-6.76,18.33-13.66,27.61-20.34c3.64-2.62,7.52-5.11,12.1-1.52c4.59,3.6,5.76,8.32,4.07,13.61
		c-1.35,4.21-3.25,8.26-5.04,12.32c-1.68,3.82-3.51,7.42-0.04,11.39c1.68,1.91,2.72,4.59,0.5,6.9c-2.64,2.75-5.87,1.94-8.85,0.64
		C197.87,310.29,197.42,303.44,195.56,296.73z M166.62,295.26c-0.46-0.22-0.94-0.66-1.3-0.58c-0.53,0.12-0.98,0.6-1.46,0.93
		c0.7,0.36,1.4,0.73,2.1,1.09C166.17,296.22,166.4,295.74,166.62,295.26z"/>
</g>
</svg>
